<?xml version="1.0" encoding="UTF-8" standalone="no"?>
<svg
   viewBox="0 0 104.53368 114.62585"
   version="1.1"
   id="svg462"
   sodipodi:docname="addingItem.svg"
   width="104.53368"
   height="114.62585"
   xml:space="preserve"
   inkscape:version="1.2.2 (732a01da63, 2022-12-09)"
   inkscape:export-filename="..\icons\addingItem.png"
   inkscape:export-xdpi="96"
   inkscape:export-ydpi="96"
   xmlns:inkscape="http://www.inkscape.org/namespaces/inkscape"
   xmlns:sodipodi="http://sodipodi.sourceforge.net/DTD/sodipodi-0.dtd"
   xmlns="http://www.w3.org/2000/svg"
   xmlns:svg="http://www.w3.org/2000/svg"><defs
     id="defs466" /><sodipodi:namedview
     id="namedview464"
     pagecolor="#ffffff"
     bordercolor="#000000"
     borderopacity="0.25"
     inkscape:showpageshadow="2"
     inkscape:pageopacity="0.0"
     inkscape:pagecheckerboard="0"
     inkscape:deskcolor="#d1d1d1"
     showgrid="false"
     inkscape:zoom="3.2695312"
     inkscape:cx="91.756274"
     inkscape:cy="64.535246"
     inkscape:window-width="1920"
     inkscape:window-height="1017"
     inkscape:window-x="1912"
     inkscape:window-y="-8"
     inkscape:window-maximized="1"
     inkscape:current-layer="svg462" /><title
     id="title449" /><rect
     style="fill:none;stroke:#000000;stroke-width:2.43043;stroke-dasharray:none;stroke-opacity:1"
     id="rect624"
     width="20.175051"
     height="9.2758856"
     x="54.034931"
     y="21.911703"
     ry="1.7005786"
     rx="0.23189712"
     transform="rotate(4.665528)" /><rect
     style="fill:none;stroke:#000000;stroke-width:2.43043;stroke-dasharray:none;stroke-opacity:1"
     id="rect624-7"
     width="20.175051"
     height="9.2758856"
     x="16.106367"
     y="38.158611"
     ry="1.7005786"
     rx="0.23189712"
     transform="rotate(0.73556864)" /><rect
     style="fill:none;stroke:#000000;stroke-width:2.43043;stroke-dasharray:none;stroke-opacity:1"
     id="rect624-7-1"
     width="20.175051"
     height="9.2758856"
     x="39.610397"
     y="38.79808"
     ry="1.7005786"
     rx="0.23189712"
     transform="rotate(-0.25896)" /><style
     type="text/css"
     id="style1656">&#10;	.st0{fill:#231F20;}&#10;</style><path
     id="path1658"
     style="fill:#00f70f;fill-opacity:1;stroke-width:0.0969026"
     class="st0"
     d="m 75.261533,29.078197 c -1.065932,0 -1.93848,0.872558 -1.93848,1.938481 v 10.17478 H 63.148275 c -1.065925,0 -1.938479,0.872561 -1.938486,1.938481 0,1.065912 0.872561,1.937199 1.938486,1.937199 h 10.174778 v 10.17478 c 0,1.065907 0.872548,1.938481 1.93848,1.938481 1.065925,0 1.937199,-0.872574 1.937199,-1.938481 v -10.17478 h 10.174785 c 1.065834,0 1.93848,-0.871287 1.93848,-1.937199 0,-1.06592 -0.872646,-1.938481 -1.93848,-1.938481 H 77.198732 v -10.17478 c 0,-1.065923 -0.871274,-1.938481 -1.937199,-1.938481 z" /><rect
     style="fill:none;stroke:#000000;stroke-width:2.43043;stroke-dasharray:none;stroke-opacity:1"
     id="rect1"
     width="20.175051"
     height="9.2758856"
     x="19.90988"
     y="33.938454"
     ry="1.7005786"
     rx="0.23189712"
     transform="rotate(-14.264431)" /><rect
     style="fill:none;stroke:#000000;stroke-width:2.43043;stroke-dasharray:none;stroke-opacity:1"
     id="rect2"
     width="20.175051"
     height="9.2758856"
     x="51.118271"
     y="5.5559754"
     ry="1.7005786"
     rx="0.23189712"
     transform="rotate(8.7120633)" /></svg>
