<?xml version="1.0" encoding="UTF-8" standalone="no"?>
<svg
   viewBox="0 0 104.53368 114.62585"
   version="1.1"
   id="svg462"
   sodipodi:docname="addingItem.svg"
   width="104.53368"
   height="114.62585"
   xml:space="preserve"
   inkscape:version="1.2.2 (732a01da63, 2022-12-09)"
   inkscape:export-filename="..\icons\addingItem.png"
   inkscape:export-xdpi="96"
   inkscape:export-ydpi="96"
   xmlns:inkscape="http://www.inkscape.org/namespaces/inkscape"
   xmlns:sodipodi="http://sodipodi.sourceforge.net/DTD/sodipodi-0.dtd"
   xmlns="http://www.w3.org/2000/svg"
   xmlns:svg="http://www.w3.org/2000/svg"><defs
     id="defs466" /><sodipodi:namedview
     id="namedview464"
     pagecolor="#ffffff"
     bordercolor="#000000"
     borderopacity="0.25"
     inkscape:showpageshadow="2"
     inkscape:pageopacity="0.0"
     inkscape:pagecheckerboard="0"
     inkscape:deskcolor="#d1d1d1"
     showgrid="false"
     inkscape:zoom="3.2695312"
     inkscape:cx="91.756274"
     inkscape:cy="64.535246"
     inkscape:window-width="1920"
     inkscape:window-height="1017"
     inkscape:window-x="1912"
     inkscape:window-y="-8"
     inkscape:window-maximized="1"
     inkscape:current-layer="svg462" /><title
     id="title449" /><g
     data-name="Layer 2"
     id="Layer_2"
     transform="matrix(2.8593321,0,0,2.8593321,2.36982,33.134881)"><path
       id="path451"
       d="M 3.9009426,3.5051489 A 0.50477718,0.50477718 0 0 0 3.719929,4.4197801 L 6.1202382,5.9997218 9.5103164,22.999977 a 0.5,0.5 0 0 0 0.4897616,0.400279 h 14.569891 a 0.51,0.51 0 0 0 0.480198,-0.340169 L 28.4703,12.770315 A 0.48,0.48 0 0 0 28.41019,12.279871 0.52,0.52 0 0 0 27.999665,12.070168 H 25.08637 c -0.05116,0.0031 -0.102519,0.0047 -0.153691,0.0061 -0.11076,0.004 -0.221268,0.0033 -0.331972,-0.0014 -0.109983,-0.0051 -0.220136,-0.01338 -0.329923,-0.02254 -0.03919,0.004 -0.07852,0.0067 -0.117488,0.0123 -0.04332,0.0058 -0.08615,0.01267 -0.129784,0.01571 -0.01899,0.0013 -0.03288,-0.003 -0.04167,-0.01025 h -5.49735 c 6.9e-4,0.0025 0.0013,0.005 0.002,0.0075 -0.01198,0.004 -0.02361,0.0063 -0.0362,0.0075 -0.01652,0.0029 -0.03308,0.0076 -0.04986,0.0089 -0.01972,0.0014 -0.03898,9.44e-4 -0.05874,0.002 -0.01927,10e-4 -0.0389,0.0026 -0.05806,0.0048 -0.02105,0.0016 -0.04179,0.0013 -0.06284,0.0027 -0.02085,0.0014 -0.04193,0.0044 -0.06284,0.0041 -0.02755,-4e-6 -0.05509,1.6e-5 -0.08265,0 -0.0306,-2.1e-5 -0.06093,1.28e-4 -0.09153,0 -0.03225,-1.4e-4 -0.06475,-7.73e-4 -0.097,-0.0014 -0.0426,-7.35e-4 -0.08517,-0.0014 -0.127734,-0.0034 -0.04251,-0.0019 -0.08518,-0.0036 -0.127734,-0.0041 -0.03731,-0.0012 -0.07414,-0.003 -0.111341,-0.0061 -0.0319,-0.0022 -0.06387,-0.003 -0.09563,-0.0068 -0.0239,-0.0023 -0.04805,-0.004 -0.07172,-0.0082 -0.02177,-0.003 -0.04365,-0.0054 -0.06558,-0.0068 -0.02561,-0.0017 -0.05152,-0.0043 -0.07719,-0.0061 v 0.0055 h -5.568389 c -0.02386,0.0039 -0.04768,0.0074 -0.07172,0.0096 -0.02737,0.0025 -0.05448,0.0059 -0.08197,0.0068 -0.03152,0.0018 -0.0634,0.0015 -0.09495,0.0014 -0.02755,-10e-7 -0.05509,8e-6 -0.08265,0 -0.0237,-8e-6 -0.04736,4.8e-5 -0.07104,0 -0.02191,-6.4e-5 -0.04368,-4.55e-4 -0.06557,-6.83e-4 -0.02707,-3.15e-4 -0.05425,-1.42e-4 -0.08129,-0.0014 -0.01785,-0.0011 -0.03548,-0.0031 -0.05328,-0.0048 h -0.05465 -0.05328 -0.04918 -0.0485 -0.06011 -0.06967 -0.05874 c -0.02326,0 -0.04642,2e-6 -0.06967,0 -0.01381,-2e-6 -0.02785,1.5e-5 -0.04167,0 -0.0119,-1.8e-5 -0.02363,8.5e-5 -0.03552,0 -0.01046,-7e-5 -0.02096,-1.93e-4 -0.03142,-6.83e-4 -0.012,-6.29e-4 -0.02435,-0.0013 -0.0362,-0.0034 -0.0077,-0.0015 -0.01529,-0.0038 -0.02322,-0.0034 -0.01364,-5.59e-4 -0.02673,-0.0012 -0.0403,-0.0027 -0.0023,-2.95e-4 -0.0046,-3.75e-4 -0.0068,-6.83e-4 H 8.3600259 L 7.060143,5.6199347 A 0.47,0.47 0 0 0 6.8497574,5.3002578 L 4.2800467,3.5802866 A 0.50477718,0.50477718 0 0 0 3.9009426,3.5051489 Z M 17.976973,6.070078 c 0.0066,0.00438 0.0133,0.00849 0.01981,0.012978 0.0117,0.00814 0.02277,0.016309 0.03484,0.023907 0.0093,0.00563 0.01874,0.011429 0.02801,0.017077 0.0061,0.0036 0.01239,0.00726 0.01844,0.010929 0.0038,0.00242 0.0077,0.00452 0.01161,0.00683 0.0036,0.00161 0.0057,0.00514 0.0089,0.00751 0.0031,0.00266 0.0056,0.00572 0.0082,0.00888 0.0039,4.565e-4 0.0077,6.417e-4 0.01161,0.00137 0.04382,0.0076 0.08784,0.013628 0.131833,0.019809 0.01788,-0.03316 0.03593,-0.065844 0.0526,-0.099728 0.0015,-0.0031 0.0026,-0.00645 0.0041,-0.00956 z m -7.616917,4.418782 v 0.0034 c 0.0018,-2.32e-4 0.0036,-4.56e-4 0.0055,-6.84e-4 -0.0018,-8.87e-4 -0.0036,-0.0018 -0.0055,-0.0027 z m 13.709905,1.01231 v 6.84e-4 c 0.0014,-1.1e-5 0.0027,10e-6 0.0041,0 0.01591,-1.43e-4 0.03187,-4.22e-4 0.04781,-6.84e-4 -0.0174,-5.9e-5 -0.03452,1.3e-5 -0.05191,0 z M 8.5499195,13.070183 H 27.309764 L 24.209991,22.35994 H 10.40992 Z" /><path
       d="m 22,24.07 a 2.22,2.22 0 0 0 -2.15,1.72 h -5.13 a 2.21,2.21 0 1 0 0,1 h 5.13 A 2.21,2.21 0 1 0 22,24.07 Z m -9.43,3.43 a 1.22,1.22 0 0 1 0,-2.43 1.22,1.22 0 1 1 0,2.43 z m 9.43,0 A 1.22,1.22 0 1 1 23.21,26.29 1.21,1.21 0 0 1 22,27.5 Z"
       id="path453" /><path
       d="m 11.71,14.64 a 0.51,0.51 0 0 0 -0.5,0.5 0.5,0.5 0 0 0 0.5,0.5 h 12 a 0.5,0.5 0 0 0 0.5,-0.5 0.5,0.5 0 0 0 -0.5,-0.5 z"
       id="path455" /><path
       d="m 22.15,17.25 h -8.72 v 0 a 0.5,0.5 0 0 0 -0.5,0.5 0.5,0.5 0 0 0 0.5,0.5 h 8.71 v 0 a 0.5,0.5 0 0 0 0,-1 z"
       id="path457" /><path
       d="m 20.29,19.79 h -5.15 a 0.5,0.5 0 0 0 -0.5,0.5 0.51,0.51 0 0 0 0.5,0.5 h 5.15 a 0.51,0.51 0 0 0 0.5,-0.5 0.5,0.5 0 0 0 -0.5,-0.5 z"
       id="path459" /></g><rect
     style="fill:none;stroke:#000000;stroke-width:2.43043;stroke-dasharray:none;stroke-opacity:1"
     id="rect624"
     width="20.175051"
     height="9.2758856"
     x="42.657013"
     y="-12.985434"
     ry="1.7005786"
     rx="0.23189712"
     transform="rotate(34.665528)" /><rect
     style="fill:none;stroke:#000000;stroke-width:2.43043;stroke-dasharray:none;stroke-opacity:1"
     id="rect624-7"
     width="20.175051"
     height="9.2758856"
     x="39.10656"
     y="-14.517566"
     ry="1.7005786"
     rx="0.23189712"
     transform="rotate(70.622219)" /><rect
     style="fill:none;stroke:#000000;stroke-width:2.43043;stroke-dasharray:none;stroke-opacity:1"
     id="rect624-7-1"
     width="20.175051"
     height="9.2758856"
     x="28.072914"
     y="-6.9444413"
     ry="1.7005786"
     rx="0.23189712"
     transform="rotate(44.74104)" /><path
     id="path1680"
     style="fill:#000000;fill-opacity:1;stroke:none;stroke-width:2.43043;stroke-dasharray:none;stroke-opacity:1"
     d="m 36.521902,39.026175 c -1.41128,-0.02192 -2.92235,0.200546 -4.53711,0.726563 10.56687,-1.354814 17.72461,17.830078 17.72461,17.830078 l -4.70117,2.404297 8.71094,4.234375 c 0.002,8.01e-4 0.006,-2.55e-4 0.008,0.002 l 0.002,0.002 c 0.001,6.9e-4 0.003,0.0012 0.004,0.002 l 0.64843,0.314453 c 0.0573,0.0091 0.11458,0.01713 0.17188,0.02539 0.0511,-0.09481 0.10274,-0.18827 0.15039,-0.285156 0.001,-0.0021 0.003,-0.0038 0.004,-0.0059 l 2.57617,-10.550781 -4.41406,1.826172 c 0,0 -4.85624,-16.346883 -16.34766,-16.525391 z" /><style
     type="text/css"
     id="style1656">
	.st0{fill:#231F20;}
</style><path
     id="path1658"
     style="fill:#00f70f;fill-opacity:1;stroke-width:0.147526"
     class="st0"
     d="m 83.143048,14.237344 c -1.62279,0 -2.95117,1.328395 -2.95117,2.951172 V 32.67875 h -15.49023 c -1.62278,0 -2.95117,1.328399 -2.95118,2.951172 0,1.622759 1.3284,2.949219 2.95118,2.949219 h 15.49023 v 15.490234 c 0,1.622752 1.32838,2.951172 2.95117,2.951172 1.62278,0 2.94922,-1.32842 2.94922,-2.951172 V 38.579141 h 15.490242 c 1.62264,0 2.95117,-1.32646 2.95117,-2.949219 0,-1.622773 -1.32853,-2.951172 -2.95117,-2.951172 H 86.092268 V 17.188516 c 0,-1.622777 -1.32644,-2.951172 -2.94922,-2.951172 z" /></svg>
