<?xml version="1.0" encoding="UTF-8" standalone="no"?>
<svg
   viewBox="0 0 32 32"
   version="1.1"
   id="svg462"
   sodipodi:docname="carinho.svg"
   inkscape:version="1.2.2 (732a01da63, 2022-12-09)"
   xmlns:inkscape="http://www.inkscape.org/namespaces/inkscape"
   xmlns:sodipodi="http://sodipodi.sourceforge.net/DTD/sodipodi-0.dtd"
   xmlns="http://www.w3.org/2000/svg"
   xmlns:svg="http://www.w3.org/2000/svg">
  <defs
     id="defs466" />
  <sodipodi:namedview
     id="namedview464"
     pagecolor="#ffffff"
     bordercolor="#000000"
     borderopacity="0.25"
     inkscape:showpageshadow="2"
     inkscape:pageopacity="0.0"
     inkscape:pagecheckerboard="0"
     inkscape:deskcolor="#d1d1d1"
     showgrid="false"
     inkscape:zoom="8"
     inkscape:cx="4.0625"
     inkscape:cy="22.25"
     inkscape:window-width="1920"
     inkscape:window-height="1017"
     inkscape:window-x="1912"
     inkscape:window-y="-8"
     inkscape:window-maximized="1"
     inkscape:current-layer="svg462" />
  <title
     id="title449" />
  <g
     data-name="Layer 2"
     id="Layer_2">
    <path
       d="M28.41,12.28a.52.52,0,0,0-.41-.21H25.07V10a.51.51,0,0,0-.5-.5H21.64V6.57a.5.5,0,0,0-.5-.5H14.29a.5.5,0,0,0-.5.5V9.5H10.86a.5.5,0,0,0-.5.5v2.07h-2L7.06,5.62a.47.47,0,0,0-.21-.32L4.28,3.58a.5.5,0,0,0-.56.84L6.12,6,9.51,23a.5.5,0,0,0,.49.4H24.57a.51.51,0,0,0,.48-.34l3.42-10.29A.48.48,0,0,0,28.41,12.28Zm-4.34-.21H18.21V10.5h5.86Zm-9.28-5h5.85V9.5H14.79ZM11.36,10.5h5.85v1.57H11.36ZM24.21,22.36H10.41L8.55,13.07H27.31Z"
       id="path451" />
    <path
       d="M22,24.07a2.22,2.22,0,0,0-2.15,1.72H14.72a2.21,2.21,0,1,0,0,1h5.13A2.21,2.21,0,1,0,22,24.07ZM12.57,27.5a1.22,1.22,0,0,1,0-2.43,1.22,1.22,0,1,1,0,2.43Zm9.43,0a1.22,1.22,0,1,1,1.21-1.21A1.21,1.21,0,0,1,22,27.5Z"
       id="path453" />
    <path
       d="M11.71,14.64a.51.51,0,0,0-.5.5.5.5,0,0,0,.5.5h12a.5.5,0,0,0,.5-.5.5.5,0,0,0-.5-.5Z"
       id="path455" />
    <path
       d="M22.15,17.25l-8.72,0h0a.5.5,0,0,0-.5.5.5.5,0,0,0,.5.5l8.71,0h0a.5.5,0,0,0,0-1Z"
       id="path457" />
    <path
       d="M20.29,19.79H15.14a.5.5,0,0,0-.5.5.51.51,0,0,0,.5.5h5.15a.51.51,0,0,0,.5-.5A.5.5,0,0,0,20.29,19.79Z"
       id="path459" />
  </g>
</svg>
