<?xml version="1.0" encoding="UTF-8" standalone="no"?>
<svg
   width="100%"
   height="100%"
   viewBox="0 0 64 64"
   version="1.1"
   xml:space="preserve"
   style="fill-rule:evenodd;clip-rule:evenodd;stroke-linejoin:round;stroke-miterlimit:2;"
   id="svg2"
   sodipodi:docname="categories.svg"
   inkscape:version="1.3 (0e150ed6c4, 2023-07-21)"
   xmlns:inkscape="http://www.inkscape.org/namespaces/inkscape"
   xmlns:sodipodi="http://sodipodi.sourceforge.net/DTD/sodipodi-0.dtd"
   xmlns="http://www.w3.org/2000/svg"
   xmlns:svg="http://www.w3.org/2000/svg"
   xmlns:serif="http://www.serif.com/"><defs
     id="defs2" /><sodipodi:namedview
     id="namedview2"
     pagecolor="#ffffff"
     bordercolor="#000000"
     borderopacity="0.25"
     inkscape:showpageshadow="2"
     inkscape:pageopacity="0.0"
     inkscape:pagecheckerboard="0"
     inkscape:deskcolor="#d1d1d1"
     inkscape:zoom="6.4921875"
     inkscape:cx="31.268351"
     inkscape:cy="29.188929"
     inkscape:window-width="1920"
     inkscape:window-height="1027"
     inkscape:window-x="-8"
     inkscape:window-y="-8"
     inkscape:window-maximized="1"
     inkscape:current-layer="svg2" /><rect
     id="Icons"
     x="-384"
     y="-320"
     width="1280"
     height="800"
     style="fill:none;" /><g
     id="Icons1"
     serif:id="Icons"
     transform="matrix(1.7173026,0,0,1.7173026,-18.862488,-26.648056)"
     inkscape:export-filename="..\icons\addingItemToList.png"
     inkscape:export-xdpi="96"
     inkscape:export-ydpi="96"><g
       id="Strike" /><g
       id="H1" /><g
       id="H2" /><g
       id="H3" /><g
       id="list-ul" /><g
       id="hamburger-1" /><g
       id="hamburger-2" /><g
       id="list-ol" /><g
       id="list-task" /><g
       id="trash" /><g
       id="vertical-menu" /><g
       id="horizontal-menu" /><g
       id="sidebar-2" /><g
       id="Pen" /><g
       id="Pen1"
       serif:id="Pen" /><g
       id="clock" /><g
       id="external-link" /><g
       id="hr" /><g
       id="info" /><g
       id="warning" /><g
       id="plus-circle" /><g
       id="minus-circle" /><g
       id="vue" /><g
       id="cog" /><g
       id="logo" /><g
       id="eye-slash" /><g
       id="eye" /><g
       id="toggle-off" /><g
       id="shredder" /><g
       id="g2"><path
         d="m 9.89,30.496 c -1.14,1.122 -1.784,2.653 -1.791,4.252 -0.006,1.599 0.627,3.135 1.758,4.266 3.028,3.028 7.071,7.071 10.081,10.082 2.327,2.326 6.093,2.349 8.448,0.051 5.91,-5.768 16.235,-15.846 19.334,-18.871 0.578,-0.564 0.905,-1.338 0.905,-2.146 0,-4.228 0,-17.607 0,-17.607 h -17.22 c -0.788,0 -1.544,0.309 -2.105,0.862 C 26.235,14.403 15.853,24.624 9.89,30.496 Z M 44.625,14.523 v 11.945 c 0,0.811 -0.329,1.587 -0.91,2.152 -3.069,2.981 -13.093,12.718 -17.485,16.984 -1.161,1.127 -3.012,1.114 -4.157,-0.031 -2.387,-2.386 -6.296,-6.296 -8.709,-8.709 -0.562,-0.562 -0.876,-1.325 -0.872,-2.12 0.003,-0.795 0.324,-1.555 0.892,-2.112 4.455,-4.373 14.545,-14.278 17.573,-17.25 0.561,-0.551 1.316,-0.859 2.102,-0.859 3.202,0 11.566,0 11.566,0 z m -7.907,2.462 c -1.751,0.015 -3.45,1.017 -4.266,2.553 -0.708,1.331 -0.75,2.987 -0.118,4.356 0.836,1.812 2.851,3.021 4.882,2.809 2.042,-0.212 3.899,-1.835 4.304,-3.896 0.296,-1.503 -0.162,-3.136 -1.213,-4.251 -0.899,-0.953 -2.18,-1.548 -3.495,-1.57 -0.031,-0.001 -0.062,-0.001 -0.094,-0.001 z m 0.008,2.519 c 1.105,0.007 2.142,0.849 2.343,1.961 0.069,0.384 0.043,0.786 -0.09,1.154 -0.393,1.079 -1.62,1.811 -2.764,1.536 -1.139,-0.274 -1.997,-1.489 -1.802,-2.67 0.177,-1.069 1.146,-1.963 2.27,-1.981 0.014,0 0.029,0 0.043,0 z"
         id="path1" /><path
         d="m 48.625,13.137 v 4.001 h 3.362 v 11.945 c 0,0.811 -0.328,1.587 -0.909,2.152 -3.069,2.981 -13.093,12.717 -17.485,16.983 -1.161,1.128 -3.013,1.114 -4.157,-0.03 l -0.034,-0.034 -1.016,0.993 c -0.663,0.646 -1.437,1.109 -2.259,1.389 l 1.174,1.174 c 2.327,2.327 6.093,2.35 8.447,0.051 5.91,-5.768 16.235,-15.845 19.335,-18.87 0.578,-0.565 0.904,-1.339 0.904,-2.147 0,-4.227 0,-17.607 0,-17.607 z"
         id="path2" /></g><g
       id="spinner--loading--dots-"
       serif:id="spinner [loading, dots]" /><g
       id="react" /></g></svg>
