<?xml version="1.0" encoding="UTF-8" standalone="no"?>
<!-- Created with Inkscape (http://www.inkscape.org/) -->

<svg
   width="1024"
   height="1024"
   viewBox="0 0 1024 1024"
   version="1.1"
   id="svg1"
   xml:space="preserve"
   inkscape:version="1.3 (0e150ed6c4, 2023-07-21)"
   sodipodi:docname="IconeApp.svg"
   inkscape:export-filename="..\expo_imgs\icon.png"
   inkscape:export-xdpi="96"
   inkscape:export-ydpi="96"
   xmlns:inkscape="http://www.inkscape.org/namespaces/inkscape"
   xmlns:sodipodi="http://sodipodi.sourceforge.net/DTD/sodipodi-0.dtd"
   xmlns="http://www.w3.org/2000/svg"
   xmlns:svg="http://www.w3.org/2000/svg"><sodipodi:namedview
     id="namedview1"
     pagecolor="#ffffff"
     bordercolor="#000000"
     borderopacity="0.25"
     inkscape:showpageshadow="2"
     inkscape:pageopacity="0.0"
     inkscape:pagecheckerboard="0"
     inkscape:deskcolor="#d1d1d1"
     inkscape:document-units="px"
     inkscape:zoom="0.24564595"
     inkscape:cx="-374.52276"
     inkscape:cy="315.49472"
     inkscape:window-width="1920"
     inkscape:window-height="1027"
     inkscape:window-x="-8"
     inkscape:window-y="-8"
     inkscape:window-maximized="1"
     inkscape:current-layer="layer1" /><defs
     id="defs1" /><g
     inkscape:label="Camada 1"
     inkscape:groupmode="layer"
     id="layer1"><rect
       style="fill:#000000;fill-opacity:1;stroke:#efc90b;stroke-opacity:1"
       id="rect26"
       width="1024"
       height="1024"
       x="0"
       y="0"
       ry="0" /><circle
       style="fill:#7d8cc4;fill-opacity:1"
       id="path1"
       cx="329.92233"
       cy="801.16718"
       r="35.98201" /><circle
       style="fill:#000000;fill-opacity:1;stroke-width:0.727868"
       id="circle1"
       cx="329.92233"
       cy="801.16718"
       r="26.190153" /><circle
       style="fill:#7d8cc4;fill-opacity:1;stroke-width:0.48"
       id="circle2"
       cx="329.92233"
       cy="801.16718"
       r="17.271366" /><circle
       style="fill:#7d8cc4;fill-opacity:1"
       id="circle3"
       cx="653.55884"
       cy="801.16718"
       r="35.98201" /><circle
       style="fill:#000000;fill-opacity:1;stroke-width:0.727868"
       id="circle4"
       cx="653.55884"
       cy="801.16718"
       r="26.190153" /><circle
       style="fill:#7d8cc4;fill-opacity:1;stroke-width:0.48"
       id="circle5"
       cx="653.55884"
       cy="801.16718"
       r="17.271366" /><rect
       style="fill:#7d8cc4;fill-opacity:1"
       id="rect5"
       width="403.01901"
       height="33.584938"
       x="270.4086"
       y="737.83612"
       ry="16.792469" /><path
       style="fill:#7d8cc4;fill-opacity:1"
       d="m 666.30361,768.36788 c 0,0 30.53175,-20.86336 29.00516,-45.28876 -1.52658,-24.4254 -10.68611,-33.58492 -15.77473,-38.16468 -5.08863,-4.57976 -45.28876,-41.21786 -51.39511,-42.74445 -6.10635,-1.52659 -36.6381,14.75701 -36.6381,14.75701 0,0 62.59009,44.27104 65.64326,52.41284 3.05318,8.14179 7.63294,10.68611 4.0709,16.79246 -3.56204,6.10635 3.56204,8.65066 -20.86336,11.19497 -24.4254,2.54431 -29.51402,8.65066 -29.51402,8.65066 z"
       id="path5" /><path
       style="display:inline;fill:#7d8cc4;fill-opacity:1"
       d="m 628.13893,642.67885 127.72448,-329.234 87.01548,-14.24815 c 0,0 11.19497,-3.56204 9.15952,-17.81019 -2.03545,-14.24815 -12.2127,-15.26587 -14.75701,-14.24815 -2.54431,1.01773 -90.57752,13.73929 -90.57752,13.73929 0,0 -12.72156,1.52659 -16.79246,11.19497 -4.0709,9.66839 -43.25331,108.89657 -43.25331,108.89657 l -411.16086,10.17725 c 0,0 -15.26587,-0.50886 -15.77473,12.72156 -0.50887,13.23042 22.38994,195.40318 22.38994,195.40318 0,0 2.03545,12.2127 19.84564,13.23042 17.81019,1.01773 294.63136,24.4254 294.63136,24.4254 z"
       id="path6" /><g
       id="g23"
       transform="translate(1086.624,79.368121)"
       style="fill:#000000;fill-opacity:1"><path
         style="fill:#000000;fill-opacity:1"
         d="m -785.42919,485.45478 3.56203,36.12923 27.98744,0.7633 0.50886,-37.14696 z"
         id="path7" /><path
         style="fill:#000000;fill-opacity:1"
         d="m -787.21021,472.22436 -7.12408,-52.41284 h 40.96343 l 0.25443,52.9217 z"
         id="path8" /><path
         style="fill:#000000;fill-opacity:1"
         d="m -801.45836,356.96701 6.36078,50.63181 41.72672,0.25444 -0.25443,-52.15841 z"
         id="path9" /><path
         style="fill:#000000;fill-opacity:1"
         d="m -741.41259,355.69485 h 55.97487 v 53.17613 h -56.48373 z"
         id="path10" /><path
         style="fill:#000000;fill-opacity:1"
         d="m -673.98832,353.91384 h 58.51918 v 54.44828 h -57.50145 z"
         id="path11" /><path
         style="fill:#000000;fill-opacity:1"
         d="m -604.52859,351.36952 h 56.48373 v 57.24703 h -55.46601 z"
         id="path12" /><path
         style="fill:#000000;fill-opacity:1"
         d="m -535.3233,350.86066 h 56.48373 v 55.46601 h -55.21157 z"
         id="path13" /><path
         style="fill:#000000;fill-opacity:1"
         d="m -466.62687,349.07964 h 53.93942 l -22.64438,59.02805 h -31.29504 z"
         id="path14" /><path
         style="fill:#000000;fill-opacity:1"
         d="m -466.62687,472.47879 5.85192,0.25443 20.10007,-52.1584 -25.44313,-0.25443 z"
         id="path15" /><path
         style="fill:#000000;fill-opacity:1"
         d="m -741.66702,420.06595 h 56.2293 v 52.15841 h -56.48373 z"
         id="path16" /><path
         style="fill:#000000;fill-opacity:1"
         d="m -741.66702,484.18262 h 55.466 v 43.76217 l -54.95714,-4.57976 z"
         id="path17" /><path
         style="fill:#000000;fill-opacity:1"
         d="m -672.46173,484.69149 56.48373,0.50886 v 48.59636 l -57.75589,-4.32533 z"
         id="path18" /><path
         style="fill:#000000;fill-opacity:1"
         d="m -603.7653,484.69149 56.2293,0.25443 1.27216,54.70271 -56.9926,-5.08862 z"
         id="path19" /><path
         style="fill:#000000;fill-opacity:1"
         d="m -535.83216,484.43705 56.99259,1.01773 v 33.07606 l -9.92282,25.95198 -47.06977,-4.0709 z"
         id="path20" /><path
         style="fill:#000000;fill-opacity:1"
         d="m -479.34843,472.98765 0.50886,-52.66726 h -55.72044 v 52.66726 z"
         id="path21" /><path
         style="fill:#000000;fill-opacity:1"
         d="m -548.55372,472.47879 1.01772,-52.41284 -56.2293,0.7633 0.25443,51.64954 z"
         id="path22" /><path
         style="fill:#000000;fill-opacity:1"
         d="m -615.978,472.47879 v -51.90397 h -56.2293 l -0.25443,51.64954 z"
         id="path23" /></g><text
       xml:space="preserve"
       style="font-size:245.845px;fill:#ffffff;fill-opacity:1;stroke-width:4.081;stroke:#efc90b;stroke-opacity:1;stroke-dasharray:none"
       x="414.58646"
       y="327.79587"
       id="text24"><tspan
         sodipodi:role="line"
         id="tspan24"
         x="414.58646"
         y="327.79587"
         style="font-size:245.845px;fill:#5fb474;fill-opacity:1;stroke:#efc90b;stroke-width:4.081;stroke-opacity:1;stroke-dasharray:none">$</tspan></text><path
       style="fill:#eec80c;fill-opacity:1;stroke:none;stroke-width:4.081;stroke-dasharray:none;stroke-opacity:1"
       d="M 454.81259,400.11994 C 289.29535,264.82759 418.83058,126.65667 418.83058,126.65667 l 15.83209,11.51424 5.75712,-57.57121 -57.57121,18.710645 15.83208,11.514245 c 0,0 -139.6102,149.68516 56.13193,289.29535 z"
       id="path26" /><path
       style="fill:#eec80c;fill-opacity:1;stroke:none;stroke-width:4.081;stroke-dasharray:none;stroke-opacity:1"
       d="m 543.29474,80.5997 c 165.51724,135.29235 35.98201,273.46327 35.98201,273.46327 l -15.83209,-11.51424 -5.75712,57.57121 57.57121,-18.71065 -15.83208,-11.51424 c 0,0 139.6102,-149.68516 -56.13193,-289.29535 z"
       id="path27" /></g></svg>
