<?xml version="1.0" encoding="UTF-8" standalone="no"?>
<!-- Created with Inkscape (http://www.inkscape.org/) -->

<svg
   width="331.93408"
   height="423.7876"
   viewBox="0 0 87.824218 112.12713"
   version="1.1"
   id="svg1"
   xml:space="preserve"
   inkscape:export-filename="splash.png"
   inkscape:export-xdpi="96"
   inkscape:export-ydpi="96"
   inkscape:version="1.3 (0e150ed6c4, 2023-07-21)"
   sodipodi:docname="splash.svg"
   xmlns:inkscape="http://www.inkscape.org/namespaces/inkscape"
   xmlns:sodipodi="http://sodipodi.sourceforge.net/DTD/sodipodi-0.dtd"
   xmlns="http://www.w3.org/2000/svg"
   xmlns:svg="http://www.w3.org/2000/svg"><sodipodi:namedview
     id="namedview1"
     pagecolor="#ffffff"
     bordercolor="#000000"
     borderopacity="0.25"
     inkscape:showpageshadow="2"
     inkscape:pageopacity="0.0"
     inkscape:pagecheckerboard="0"
     inkscape:deskcolor="#d1d1d1"
     inkscape:document-units="mm"
     inkscape:zoom="0.18507471"
     inkscape:cx="-637.58037"
     inkscape:cy="1677.7009"
     inkscape:window-width="1920"
     inkscape:window-height="1027"
     inkscape:window-x="-8"
     inkscape:window-y="-8"
     inkscape:window-maximized="1"
     inkscape:current-layer="layer1" /><defs
     id="defs1" /><g
     inkscape:label="Camada 1"
     inkscape:groupmode="layer"
     id="layer1"
     transform="translate(-132.47157,-48.3849)"><circle
       style="fill:#7d8cc4;fill-opacity:1;stroke-width:0.148208"
       id="path1"
       cx="142.87703"
       cy="155.1792"
       r="5.3328443"
       inkscape:export-filename=".\path1.png"
       inkscape:export-xdpi="96"
       inkscape:export-ydpi="96" /><circle
       style="fill:#000000;fill-opacity:1;stroke-width:0.107876"
       id="circle1"
       cx="142.87703"
       cy="155.1792"
       r="3.8816066" /><circle
       style="fill:#7d8cc4;fill-opacity:1;stroke-width:0.0711401"
       id="circle2"
       cx="142.87703"
       cy="155.1792"
       r="2.5597653" /><circle
       style="fill:#7d8cc4;fill-opacity:1;stroke-width:0.148208"
       id="circle3"
       cx="190.84274"
       cy="155.1792"
       r="5.3328443" /><circle
       style="fill:#000000;fill-opacity:1;stroke-width:0.107876"
       id="circle4"
       cx="190.84274"
       cy="155.1792"
       r="3.8816066" /><circle
       style="fill:#7d8cc4;fill-opacity:1;stroke-width:0.0711401"
       id="circle5"
       cx="190.84274"
       cy="155.1792"
       r="2.5597653" /><rect
       style="fill:#7d8cc4;fill-opacity:1;stroke-width:0.148208"
       id="rect5"
       width="59.730892"
       height="4.9775777"
       x="134.05656"
       y="145.793"
       ry="2.4887888" /><path
       style="fill:#7d8cc4;fill-opacity:1;stroke-width:0.148208"
       d="m 192.73163,150.31807 c 0,0 4.52506,-3.09212 4.29881,-6.71218 -0.22625,-3.62006 -1.58378,-4.97758 -2.33795,-5.65634 -0.75418,-0.67875 -6.71219,-6.10884 -7.6172,-6.3351 -0.90501,-0.22625 -5.43008,2.18712 -5.43008,2.18712 0,0 9.27639,6.56135 9.72889,7.76804 0.45251,1.20668 1.13127,1.58377 0.60335,2.48878 -0.52793,0.90502 0.52792,1.28211 -3.09213,1.65919 -3.62006,0.3771 -4.37423,1.28211 -4.37423,1.28211 z"
       id="path5" /><path
       style="display:inline;fill:#7d8cc4;fill-opacity:1;stroke-width:0.148208"
       d="m 187.07529,131.68987 18.92987,-48.795319 12.89644,-2.11169 c 0,0 1.6592,-0.52793 1.35752,-2.63963 -0.30167,-2.11169 -1.81002,-2.26253 -2.18711,-2.11169 -0.37709,0.15083 -13.42437,2.03627 -13.42437,2.03627 0,0 -1.88544,0.22626 -2.48879,1.6592 -0.60334,1.43293 -6.41051,16.13941 -6.41051,16.13941 l -60.93759,1.50835 c 0,0 -2.26253,-0.0754 -2.33795,1.88545 -0.0754,1.960859 3.31838,28.960439 3.31838,28.960439 0,0 0.30167,1.81002 2.9413,1.96086 2.63962,0.15083 43.66691,3.62005 43.66691,3.62005 z"
       id="path6" /><g
       id="g23"
       transform="matrix(0.14820863,0,0,0.14820863,255.02674,48.202361)"
       style="fill:#000000;fill-opacity:1"><path
         style="fill:#000000;fill-opacity:1"
         d="m -785.42919,485.45478 3.56203,36.12923 27.98744,0.7633 0.50886,-37.14696 z"
         id="path7" /><path
         style="fill:#000000;fill-opacity:1"
         d="m -787.21021,472.22436 -7.12408,-52.41284 h 40.96343 l 0.25443,52.9217 z"
         id="path8" /><path
         style="fill:#000000;fill-opacity:1"
         d="m -801.45836,356.96701 6.36078,50.63181 41.72672,0.25444 -0.25443,-52.15841 z"
         id="path9" /><path
         style="fill:#000000;fill-opacity:1"
         d="m -741.41259,355.69485 h 55.97487 v 53.17613 h -56.48373 z"
         id="path10" /><path
         style="fill:#000000;fill-opacity:1"
         d="m -673.98832,353.91384 h 58.51918 v 54.44828 h -57.50145 z"
         id="path11" /><path
         style="fill:#000000;fill-opacity:1"
         d="m -604.52859,351.36952 h 56.48373 v 57.24703 h -55.46601 z"
         id="path12" /><path
         style="fill:#000000;fill-opacity:1"
         d="m -535.3233,350.86066 h 56.48373 v 55.46601 h -55.21157 z"
         id="path13" /><path
         style="fill:#000000;fill-opacity:1"
         d="m -466.62687,349.07964 h 53.93942 l -22.64438,59.02805 h -31.29504 z"
         id="path14" /><path
         style="fill:#000000;fill-opacity:1"
         d="m -466.62687,472.47879 5.85192,0.25443 20.10007,-52.1584 -25.44313,-0.25443 z"
         id="path15" /><path
         style="fill:#000000;fill-opacity:1"
         d="m -741.66702,420.06595 h 56.2293 v 52.15841 h -56.48373 z"
         id="path16" /><path
         style="fill:#000000;fill-opacity:1"
         d="m -741.66702,484.18262 h 55.466 v 43.76217 l -54.95714,-4.57976 z"
         id="path17" /><path
         style="fill:#000000;fill-opacity:1"
         d="m -672.46173,484.69149 56.48373,0.50886 v 48.59636 l -57.75589,-4.32533 z"
         id="path18" /><path
         style="fill:#000000;fill-opacity:1"
         d="m -603.7653,484.69149 56.2293,0.25443 1.27216,54.70271 -56.9926,-5.08862 z"
         id="path19" /><path
         style="fill:#000000;fill-opacity:1"
         d="m -535.83216,484.43705 56.99259,1.01773 v 33.07606 l -9.92282,25.95198 -47.06977,-4.0709 z"
         id="path20" /><path
         style="fill:#000000;fill-opacity:1"
         d="m -479.34843,472.98765 0.50886,-52.66726 h -55.72044 v 52.66726 z"
         id="path21" /><path
         style="fill:#000000;fill-opacity:1"
         d="m -548.55372,472.47879 1.01772,-52.41284 -56.2293,0.7633 0.25443,51.64954 z"
         id="path22" /><path
         style="fill:#000000;fill-opacity:1"
         d="m -615.978,472.47879 v -51.90397 h -56.2293 l -0.25443,51.64954 z"
         id="path23" /></g><text
       xml:space="preserve"
       style="font-size:36.4364px;fill:#ffffff;fill-opacity:1;stroke:#efc90b;stroke-width:0.604837;stroke-dasharray:none;stroke-opacity:1"
       x="155.42497"
       y="85.021515"
       id="text24"><tspan
         sodipodi:role="line"
         id="tspan24"
         x="155.42497"
         y="85.021515"
         style="font-size:36.4364px;fill:#5fb474;fill-opacity:1;stroke:#efc90b;stroke-width:0.604837;stroke-dasharray:none;stroke-opacity:1">$</tspan></text><path
       style="fill:#eec80c;fill-opacity:1;stroke:none;stroke-width:0.604837;stroke-dasharray:none;stroke-opacity:1"
       d="m 161.38683,95.740551 c -24.53108,-20.05149 -5.33284,-40.52962 -5.33284,-40.52962 l 2.34645,1.70652 0.85325,-8.53255 -8.53255,2.77307 2.34646,1.70652 c 0,0 -20.69144,22.18463 8.31923,42.87606 z"
       id="path26" /><path
       style="fill:#eec80c;fill-opacity:1;stroke:none;stroke-width:0.604837;stroke-dasharray:none;stroke-opacity:1"
       d="m 174.50065,48.384901 c 24.53108,20.05149 5.33284,40.52961 5.33284,40.52961 l -2.34645,-1.70651 -0.85325,8.53255 8.53255,-2.77308 -2.34646,-1.70651 c 0,0 20.69144,-22.18463 -8.31923,-42.87606 z"
       id="path27" /></g></svg>
