<?xml version="1.0" encoding="UTF-8" standalone="no"?>
<svg
   viewBox="0 0 1024 1024"
   version="1.1"
   id="svg462"
   sodipodi:docname="carinho.svg"
   width="1024"
   height="1024"
   xmlns:inkscape="http://www.inkscape.org/namespaces/inkscape"
   xmlns:sodipodi="http://sodipodi.sourceforge.net/DTD/sodipodi-0.dtd"
   xmlns="http://www.w3.org/2000/svg"
   xmlns:svg="http://www.w3.org/2000/svg">
  <defs
     id="defs466" />
  <sodipodi:namedview
     id="namedview464"
     pagecolor="#ffffff"
     bordercolor="#000000"
     borderopacity="0.25"
     inkscape:showpageshadow="2"
     inkscape:pageopacity="0.0"
     inkscape:pagecheckerboard="0"
     inkscape:deskcolor="#d1d1d1"
     showgrid="false" />
  <title
     id="title449" />
  <g
     data-name="Layer 2"
     id="Layer_2">
    <path
       d="M 28.41,12.28 A 0.52,0.52 0 0 0 28,12.07 H 25.07 V 10 A 0.51,0.51 0 0 0 24.57,9.5 H 21.64 V 6.57 a 0.5,0.5 0 0 0 -0.5,-0.5 h -6.85 a 0.5,0.5 0 0 0 -0.5,0.5 V 9.5 h -2.93 a 0.5,0.5 0 0 0 -0.5,0.5 v 2.07 h -2 L 7.06,5.62 A 0.47,0.47 0 0 0 6.85,5.3 L 4.28,3.58 A 0.50477718,0.50477718 0 0 0 3.72,4.42 L 6.12,6 9.51,23 A 0.5,0.5 0 0 0 10,23.4 h 14.57 a 0.51,0.51 0 0 0 0.48,-0.34 L 28.47,12.77 A 0.48,0.48 0 0 0 28.41,12.28 Z M 24.07,12.07 H 18.21 V 10.5 h 5.86 z m -9.28,-5 h 5.85 V 9.5 h -5.85 z m -3.43,3.43 h 5.85 v 1.57 H 11.36 Z M 24.21,22.36 H 10.41 L 8.55,13.07 h 18.76 z"
       id="path451" />
    <path
       d="m 22,24.07 a 2.22,2.22 0 0 0 -2.15,1.72 h -5.13 a 2.21,2.21 0 1 0 0,1 h 5.13 A 2.21,2.21 0 1 0 22,24.07 Z m -9.43,3.43 a 1.22,1.22 0 0 1 0,-2.43 1.22,1.22 0 1 1 0,2.43 z m 9.43,0 A 1.22,1.22 0 1 1 23.21,26.29 1.21,1.21 0 0 1 22,27.5 Z"
       id="path453" />
    <path
       d="m 11.71,14.64 a 0.51,0.51 0 0 0 -0.5,0.5 0.5,0.5 0 0 0 0.5,0.5 h 12 a 0.5,0.5 0 0 0 0.5,-0.5 0.5,0.5 0 0 0 -0.5,-0.5 z"
       id="path455" />
    <path
       d="m 22.15,17.25 h -8.72 v 0 a 0.5,0.5 0 0 0 -0.5,0.5 0.5,0.5 0 0 0 0.5,0.5 h 8.71 v 0 a 0.5,0.5 0 0 0 0,-1 z"
       id="path457" />
    <path
       d="m 20.29,19.79 h -5.15 a 0.5,0.5 0 0 0 -0.5,0.5 0.51,0.51 0 0 0 0.5,0.5 h 5.15 a 0.51,0.51 0 0 0 0.5,-0.5 0.5,0.5 0 0 0 -0.5,-0.5 z"
       id="path459" />
  </g>
  <rect
     style="fill:#ffffff;fill-opacity:1;stroke:none;stroke-width:1.23891;stroke-dasharray:none;stroke-opacity:1"
     id="rect1359"
     width="18.303988"
     height="6.446579"
     x="9.2185774"
     y="5.6216626"
     rx="0"
     ry="0" />
  <rect
     style="fill:none;stroke:#000000;stroke-width:0.85;stroke-dasharray:none;stroke-opacity:1"
     id="rect624"
     width="7.055861"
     height="3.2440741"
     x="20.438"
     y="-13.866875"
     ry="0.59474677"
     rx="0.08110185"
     transform="rotate(34.665528)" />
  <rect
     style="fill:none;stroke:#000000;stroke-width:0.85;stroke-dasharray:none;stroke-opacity:1"
     id="rect624-7"
     width="7.055861"
     height="3.2440741"
     x="11.824773"
     y="-16.483953"
     ry="0.59474677"
     rx="0.08110185"
     transform="rotate(34.665528)" />
  <rect
     style="fill:none;stroke:#000000;stroke-width:0.85;stroke-dasharray:none;stroke-opacity:1"
     id="rect624-7-1"
     width="7.055861"
     height="3.2440741"
     x="20.456148"
     y="-22.184258"
     ry="0.59474677"
     rx="0.08110185"
     transform="rotate(34.665528)" />
  <path
     style="fill:#000000;fill-opacity:1;stroke:none;stroke-width:0.85;stroke-dasharray:none;stroke-opacity:1"
     d="M 14.009553,11.269514 C 11.048543,6.7175144 17.456699,2.7842329 17.456699,2.7842329 L 16.440233,1.4584077 20.373514,1.3700194 19.666407,5.0381358 18.42897,3.6681164 c 0,0 -5.83363,4.1542524 -4.419417,7.6013976 z"
     id="path1680" />
</svg>
